<?xml version="1.0" standalone="no"?>
<!DOCTYPE svg PUBLIC "-//W3C//DTD SVG 20010904//EN"
 "http://www.w3.org/TR/2001/REC-SVG-20010904/DTD/svg10.dtd">
<svg version="1.0" xmlns="http://www.w3.org/2000/svg"
 width="4961.000000pt" height="3508.000000pt" viewBox="0 0 4961.000000 3508.000000"
 preserveAspectRatio="xMidYMid meet">
<metadata>
Created by potrace 1.13, written by Peter Selinger 2001-2015
</metadata>
<g transform="translate(0.000000,3508.000000) scale(0.100000,-0.100000)"
fill="#000000" stroke="none">
<path d="M25605 33903 c-509 -66 -924 -359 -1114 -788 -76 -172 -101 -310
-101 -560 0 -157 14 -283 50 -450 24 -110 40 -164 136 -459 99 -303 118 -387
118 -536 0 -114 -2 -132 -30 -211 l-31 -86 19 -37 c10 -20 44 -62 76 -95 108
-110 284 -205 491 -265 155 -45 273 -60 423 -53 133 5 214 25 293 71 l45 27 0
57 c0 76 23 169 59 240 66 129 134 207 495 567 368 366 431 438 529 607 114
198 170 459 147 696 -61 648 -571 1167 -1244 1267 -94 14 -285 18 -361 8z
m403 -199 c350 -72 596 -227 805 -509 206 -278 275 -647 181 -972 -65 -225
-162 -354 -589 -778 -348 -347 -433 -446 -505 -590 -35 -70 -68 -170 -85 -257
-13 -67 -218 -83 -447 -34 -157 33 -202 50 -193 74 69 180 116 373 135 561 20
205 8 564 -26 774 -9 54 -14 134 -12 177 4 89 21 122 80 155 52 28 81 12 103
-56 21 -61 47 -91 72 -82 10 3 37 23 60 44 47 43 86 57 108 39 8 -6 21 -36 29
-65 13 -42 21 -54 41 -59 34 -9 50 1 93 60 69 92 169 118 197 51 l12 -29 16
22 c16 23 14 66 -5 103 -13 26 -85 57 -131 57 -21 0 -55 -10 -77 -22 l-40 -23
-49 28 c-70 39 -126 44 -186 18 -57 -25 -69 -26 -86 -5 -41 49 -145 62 -216
26 -137 -71 -160 -160 -118 -477 24 -186 28 -663 7 -815 -14 -99 -78 -408 -93
-448 l-9 -23 -58 31 c-68 36 -165 111 -186 143 -14 20 -14 28 1 72 13 39 17
88 17 220 0 196 -9 243 -113 570 -127 401 -168 589 -178 816 -16 370 87 650
324 880 139 136 294 229 483 293 186 62 427 74 638 30z"/>
<path d="M26042 32701 c145 -153 206 -327 187 -531 -18 -196 -88 -296 -392
-558 -59 -51 -123 -116 -142 -145 -48 -74 -78 -170 -72 -229 6 -47 40 -127 61
-140 21 -14 45 26 62 104 28 130 73 186 324 410 156 138 229 246 267 391 21
80 21 258 -1 349 -29 124 -114 267 -206 345 -32 28 -136 83 -156 83 -3 0 27
-36 68 -79z"/>
<path d="M12660 32714 c-29 -82 -54 -150 -55 -152 -2 -2 -29 5 -61 15 -84 25
-284 23 -421 -6 -282 -59 -538 -188 -710 -358 -91 -90 -153 -178 -212 -304
-81 -171 -96 -247 -96 -484 0 -222 10 -291 71 -500 89 -303 246 -628 468 -970
l71 -109 3 187 c1 103 6 187 11 187 5 0 34 -11 65 -25 88 -39 286 -114 286
-108 0 3 -13 22 -29 42 -44 56 -162 236 -220 334 -264 451 -362 879 -275 1201
81 297 320 527 634 610 99 27 271 32 350 12 70 -18 165 -67 165 -84 0 -6 -33
-32 -72 -56 -114 -70 -219 -153 -331 -260 -56 -54 -101 -100 -99 -102 2 -2
214 14 473 36 258 22 506 43 552 46 45 4 82 9 82 11 0 19 -210 412 -278 522
-73 117 -242 364 -301 440 l-18 23 -53 -148z"/>
<path d="M14325 32334 c-313 -47 -596 -204 -907 -503 -54 -51 -98 -97 -98
-101 0 -4 74 7 165 25 91 17 167 30 169 28 2 -2 -16 -99 -40 -216 -24 -117
-44 -216 -43 -222 0 -5 16 22 37 60 104 197 296 416 443 508 252 157 510 153
729 -11 115 -87 223 -253 264 -407 87 -331 -24 -716 -289 -1003 l-66 -72 -62
32 c-82 41 -187 144 -248 243 -27 43 -49 85 -49 93 0 7 -3 11 -8 8 -4 -2 -2
-87 5 -188 19 -291 34 -886 26 -1056 l-6 -156 26 19 c153 117 1037 811 1037
815 0 3 -82 4 -182 2 l-182 -5 42 49 c207 236 316 458 357 724 79 512 -170
1035 -590 1240 -136 67 -232 91 -380 95 -66 2 -133 1 -150 -1z"/>
<path d="M35934 32042 c-92 -38 -166 -114 -188 -192 -7 -26 -67 -307 -117
-550 -16 -80 -48 -230 -70 -335 -22 -104 -51 -243 -64 -307 -14 -65 -36 -171
-50 -235 -13 -65 -42 -206 -65 -313 -39 -186 -58 -277 -115 -550 -14 -66 -36
-174 -50 -240 -48 -232 -75 -358 -136 -645 -35 -159 -64 -316 -67 -347 -10
-139 99 -284 233 -311 30 -6 175 -37 650 -136 132 -27 328 -68 435 -91 107
-23 213 -45 235 -49 22 -5 87 -18 145 -30 165 -34 339 -70 410 -86 36 -8 120
-26 188 -40 153 -31 327 -68 480 -100 1069 -224 969 -207 1059 -180 94 28 178
113 203 205 8 31 75 343 100 470 5 25 27 133 50 240 23 107 45 215 50 240 5
25 23 110 40 190 17 80 35 165 40 190 5 25 27 133 50 240 22 107 52 251 66
320 33 158 37 175 74 350 17 80 42 201 56 270 15 69 37 175 49 235 13 61 35
169 50 240 15 72 38 182 51 245 51 242 56 276 51 327 -7 69 -37 133 -84 180
-51 51 -111 80 -204 98 -41 8 -117 24 -169 35 -52 11 -162 34 -245 51 -82 18
-168 35 -190 40 -22 4 -128 26 -235 49 -107 23 -251 53 -320 67 -190 38 -239
48 -450 93 -224 47 -233 49 -400 83 -122 25 -239 50 -485 102 -66 14 -151 32
-190 40 -100 20 -280 58 -505 106 -224 49 -306 56 -366 31z m346 -203 c52 -11
127 -27 165 -35 39 -8 122 -25 185 -38 63 -13 171 -36 240 -50 69 -14 179 -37
245 -51 66 -14 152 -32 190 -40 95 -19 507 -105 745 -155 107 -23 215 -45 240
-50 42 -8 122 -25 623 -131 105 -22 210 -44 232 -48 22 -5 87 -18 145 -30 125
-26 162 -42 214 -90 86 -81 104 -176 66 -352 -11 -52 -27 -125 -35 -164 -7
-38 -32 -158 -55 -265 -23 -107 -45 -215 -50 -240 -5 -25 -27 -133 -50 -240
-23 -107 -45 -215 -50 -240 -5 -25 -27 -133 -50 -240 -23 -107 -52 -247 -65
-310 -87 -412 -107 -510 -115 -550 -19 -93 -164 -779 -177 -835 -8 -34 -57
-98 -101 -132 -80 -60 -142 -66 -325 -27 -67 14 -196 40 -287 59 -91 19 -199
42 -240 50 -136 29 -454 96 -500 105 -25 5 -133 27 -240 50 -178 37 -580 121
-740 155 -83 17 -293 60 -435 90 -60 13 -166 35 -235 49 -161 33 -344 72 -397
84 -116 27 -203 121 -218 238 -7 49 0 92 60 374 13 63 54 257 90 430 36 173
77 368 90 433 14 64 36 171 50 237 57 273 76 364 115 550 39 186 58 277 115
550 117 562 144 686 154 711 36 94 148 169 250 169 31 0 99 -10 151 -21z"/>
<path d="M36077 31783 c-16 -3 -48 -23 -71 -46 -35 -33 -46 -53 -56 -97 -26
-123 -82 -389 -95 -455 -8 -38 -32 -158 -55 -265 -23 -107 -46 -217 -52 -245
-5 -27 -14 -68 -19 -90 -18 -84 -11 -139 22 -184 40 -56 81 -73 264 -110 83
-17 204 -42 270 -56 66 -14 152 -33 190 -41 39 -8 122 -25 185 -38 63 -13 171
-36 240 -50 69 -14 179 -37 245 -51 66 -14 152 -32 190 -40 39 -8 124 -26 190
-40 66 -14 176 -37 245 -51 69 -14 177 -37 240 -50 63 -13 147 -30 185 -38 39
-8 147 -31 240 -51 94 -20 202 -42 240 -50 39 -8 135 -28 215 -45 183 -38 242
-39 297 -4 22 15 48 39 57 55 9 16 53 205 97 421 164 810 156 761 142 829 -8
41 -78 113 -119 122 -16 3 -94 20 -174 37 -80 17 -165 35 -190 40 -25 5 -110
23 -190 40 -80 17 -165 35 -190 40 -141 30 -298 63 -780 166 -63 13 -169 35
-235 49 -66 13 -174 36 -240 50 -66 14 -172 36 -235 50 -63 13 -202 42 -307
64 -749 158 -673 145 -746 134z m283 -163 c80 -17 177 -37 215 -44 39 -8 180
-38 315 -66 135 -28 265 -55 290 -60 25 -5 110 -23 190 -40 80 -17 165 -35
190 -40 25 -5 133 -27 240 -50 107 -23 247 -52 310 -65 412 -87 510 -107 550
-115 25 -5 133 -27 240 -50 107 -22 228 -48 269 -56 101 -21 147 -41 167 -72
19 -29 21 -93 5 -156 -6 -23 -54 -241 -106 -486 -86 -401 -98 -447 -122 -472
-30 -32 -91 -52 -131 -44 -55 10 -279 57 -342 71 -36 8 -173 37 -305 65 -132
28 -258 55 -280 60 -22 5 -128 27 -235 50 -107 22 -224 47 -260 55 -36 8 -204
44 -375 80 -170 36 -328 70 -350 75 -22 5 -96 21 -165 35 -122 25 -223 47
-305 65 -22 5 -128 28 -235 51 -107 23 -207 47 -221 55 -40 20 -49 58 -33 134
8 36 32 151 53 255 22 105 58 278 81 385 22 107 49 234 59 283 10 48 26 96 36
107 25 28 81 26 255 -10z"/>
<path d="M35734 30191 c-17 -11 -34 -31 -38 -45 -22 -90 -76 -364 -76 -390 0
-35 21 -70 50 -86 19 -10 301 -72 404 -89 62 -11 111 3 132 35 16 23 63 225
86 366 10 58 9 70 -6 93 -25 38 -62 50 -277 95 -219 46 -233 47 -275 21z m274
-75 c171 -36 208 -51 218 -92 4 -14 -5 -83 -21 -157 -39 -195 -43 -204 -82
-222 -31 -15 -40 -15 -151 9 -64 13 -141 30 -170 35 -69 14 -88 25 -106 60
-11 20 -13 38 -7 62 5 19 21 94 36 167 24 112 32 136 53 152 33 26 42 26 230
-14z"/>
<path d="M36439 30037 c-32 -27 -34 -32 -65 -182 -54 -262 -55 -289 -6 -323
31 -23 341 -92 442 -99 84 -6 111 12 129 89 24 106 52 245 63 311 11 62 10 70
-9 95 -24 33 -56 49 -120 62 -26 5 -113 23 -193 39 -174 37 -206 38 -241 8z
m224 -58 c205 -41 237 -50 258 -78 24 -30 23 -49 -18 -241 -28 -135 -32 -144
-74 -165 -24 -13 -38 -12 -121 5 -51 12 -126 27 -166 36 -101 21 -119 29 -136
61 -12 25 -12 38 -1 88 7 33 23 109 35 168 19 87 28 112 48 128 31 24 49 24
175 -2z"/>
<path d="M37145 29887 c-28 -23 -37 -57 -93 -344 -17 -83 -17 -96 -4 -123 17
-36 53 -57 120 -70 26 -5 112 -23 192 -39 239 -51 265 -43 294 86 79 360 79
357 37 397 -31 30 -45 34 -292 86 -176 37 -219 38 -254 7z m328 -76 c160 -36
182 -52 173 -124 -3 -26 -17 -105 -32 -175 -33 -159 -48 -178 -133 -169 -46 5
-190 34 -308 62 -34 8 -63 45 -63 80 0 17 9 71 19 120 11 50 25 116 31 148 17
84 38 101 120 93 36 -4 123 -19 193 -35z"/>
<path d="M38444 29641 c-38 -23 -42 -35 -89 -264 -50 -244 -48 -250 155 -293
277 -61 327 -68 360 -54 17 7 37 23 45 34 15 25 87 354 88 408 1 26 -5 44 -22
62 -30 32 -55 41 -176 66 -55 11 -142 29 -194 40 -116 25 -128 25 -167 1z
m149 -51 c23 -5 98 -21 167 -36 189 -40 191 -43 149 -247 -36 -176 -44 -197
-82 -215 -25 -12 -47 -10 -190 18 -250 50 -260 59 -233 187 9 43 24 116 33
163 12 66 22 91 44 112 30 30 48 33 112 18z"/>
<path d="M35598 29561 c-32 -26 -29 -16 -73 -225 -40 -194 -43 -234 -16 -268
24 -30 50 -38 290 -88 211 -44 245 -44 277 4 13 21 57 208 86 368 12 67 -1
103 -47 129 -33 19 -348 89 -435 96 -46 4 -60 1 -82 -16z m192 -56 c235 -46
265 -55 288 -81 28 -32 28 -35 -8 -206 -36 -174 -41 -185 -83 -203 -30 -12
-49 -10 -207 24 -152 32 -177 40 -203 65 -22 22 -28 35 -23 55 63 308 66 316
91 339 31 26 46 27 145 7z"/>
<path d="M36307 29409 c-26 -19 -31 -34 -55 -144 -63 -286 -64 -293 -47 -324
8 -17 29 -38 46 -46 33 -17 407 -98 451 -97 54 1 86 28 102 85 22 84 76 350
76 376 0 39 -57 84 -126 99 -32 7 -122 26 -198 42 -167 36 -214 38 -249 9z
m258 -64 c188 -40 204 -46 226 -74 24 -30 23 -44 -21 -246 -41 -187 -38 -185
-290 -133 -224 46 -230 52 -199 200 11 51 24 118 30 148 15 79 18 88 42 110
28 27 67 25 212 -5z"/>
<path d="M37011 29253 c-21 -22 -31 -48 -45 -118 -10 -49 -29 -139 -42 -199
-22 -99 -23 -111 -9 -140 26 -55 31 -57 420 -137 121 -25 164 1 189 114 76
357 76 357 34 397 -26 24 -54 32 -268 76 -206 42 -242 43 -279 7z m319 -67
c200 -42 205 -49 166 -238 -38 -188 -44 -205 -69 -223 -31 -22 -63 -19 -237
19 -177 38 -197 46 -207 84 -9 35 -4 66 53 330 2 12 14 32 25 43 18 18 30 20
83 16 33 -3 117 -17 186 -31z"/>
<path d="M38313 29000 c-17 -10 -36 -27 -41 -37 -5 -10 -26 -104 -48 -210 -42
-208 -41 -229 7 -265 15 -11 89 -33 185 -53 87 -19 178 -39 202 -45 88 -21
150 -4 170 47 14 35 72 312 79 375 6 52 -10 88 -47 108 -12 6 -71 22 -133 35
-62 13 -157 33 -211 44 -121 26 -123 26 -163 1z m162 -55 c39 -8 115 -24 170
-36 113 -23 142 -37 152 -77 9 -35 -53 -341 -74 -364 -28 -32 -72 -30 -248 7
-238 51 -235 47 -190 261 38 180 43 192 73 208 34 19 33 19 117 1z"/>
<path d="M35474 28922 c-43 -27 -44 -33 -115 -389 -22 -110 2 -133 189 -173
406 -88 387 -94 438 145 47 216 52 279 28 306 -30 33 -42 37 -246 80 -255 54
-257 54 -294 31z m151 -56 c314 -62 328 -68 333 -132 1 -21 -11 -104 -28 -184
-25 -122 -34 -149 -56 -167 -32 -29 -41 -29 -214 8 -80 16 -158 33 -173 36
-15 3 -37 17 -48 32 -25 31 -23 46 16 231 28 132 42 165 78 180 12 5 22 9 22
9 0 1 32 -5 70 -13z"/>
<path d="M36195 28781 c-34 -15 -54 -45 -65 -97 -5 -27 -21 -103 -36 -169 -39
-184 -40 -199 -15 -233 27 -39 45 -45 256 -88 230 -47 240 -49 275 -34 42 17
55 43 78 160 12 58 31 147 42 199 33 153 18 167 -241 222 -212 45 -266 52
-294 40z m280 -91 c219 -46 217 -42 165 -290 -31 -149 -43 -175 -89 -185 -34
-7 -353 59 -385 81 -45 29 -45 35 0 249 44 209 32 203 309 145z"/>
<path d="M36905 28631 c-48 -20 -56 -46 -122 -372 -16 -82 -16 -88 0 -113 30
-45 63 -58 255 -98 256 -54 245 -52 278 -35 44 23 60 47 72 107 6 30 24 119
41 198 32 153 31 170 -10 209 -26 24 -41 28 -289 79 -173 36 -193 38 -225 25z
m235 -80 c197 -41 217 -49 241 -92 11 -21 -52 -328 -74 -363 -9 -13 -28 -26
-44 -29 -30 -6 -344 55 -380 74 -43 23 -47 58 -23 176 59 294 47 283 280 234z"/>
<path d="M37631 28452 c-41 -20 -45 -32 -91 -250 -40 -193 -41 -216 -3 -254
30 -29 39 -32 393 -105 160 -32 211 -43 375 -78 250 -53 286 -58 317 -46 51
19 55 33 125 374 13 64 13 82 3 108 -22 51 -34 56 -265 104 -90 18 -266 55
-480 100 -203 43 -316 65 -330 65 -5 0 -25 -8 -44 -18z m360 -97 c145 -31 318
-67 384 -81 66 -14 152 -32 192 -40 78 -17 123 -49 123 -88 0 -31 -50 -265
-66 -312 -17 -47 -56 -70 -102 -61 -15 3 -115 24 -222 47 -107 23 -294 61
-415 86 -240 48 -276 60 -301 99 -14 21 -15 32 -6 68 6 23 18 78 27 122 34
170 41 190 80 205 30 13 24 14 306 -45z"/>
<path d="M24590 30570 c-27 -27 -26 -84 3 -140 17 -35 43 -59 121 -112 262
-179 542 -270 836 -271 307 -1 431 50 385 158 -17 41 -44 50 -105 35 -25 -6
-127 -14 -227 -17 -207 -6 -314 7 -463 59 -151 53 -352 170 -450 263 -14 13
-37 28 -53 34 -23 9 -31 7 -47 -9z"/>
<path d="M24561 30274 c-16 -12 -21 -26 -21 -59 0 -76 23 -117 101 -174 266
-199 561 -293 861 -277 103 5 144 10 235 31 12 3 35 17 52 31 25 20 31 34 31
64 0 22 -8 47 -18 60 l-18 23 -100 -19 c-135 -26 -366 -26 -484 0 -190 41
-352 125 -530 276 -67 57 -82 63 -109 44z"/>
<path d="M15575 29906 c-60 -28 -87 -56 -114 -116 -36 -79 -19 -183 42 -249
33 -36 115 -71 167 -71 89 0 182 64 211 145 l13 35 166 1 c91 0 903 11 1805
23 902 12 1643 21 1648 19 4 -2 7 -704 7 -1559 l0 -1554 -3680 0 -3680 0 -2
-2047 -3 -2048 -1856 -3 -1856 -2 -18 45 c-24 64 -61 104 -120 131 -65 31
-126 31 -190 0 -60 -28 -87 -56 -114 -116 -27 -60 -26 -123 3 -185 28 -60 56
-87 116 -114 115 -52 259 7 301 124 l13 35 1903 0 1903 0 0 2050 0 2050 3638
-2 3637 -3 3 -745 2 -745 -121 -85 c-715 -496 -1401 -1147 -1930 -1830 -1105
-1426 -1730 -3089 -1839 -4895 -14 -232 -14 -800 0 -1025 22 -358 57 -659 116
-1000 37 -217 120 -603 135 -632 11 -21 57 -24 65 -5 2 7 -11 78 -30 157 -106
441 -188 1009 -216 1504 -13 229 -13 753 0 982 105 1838 779 3585 1933 5007
357 441 851 936 1294 1294 1294 1051 2869 1709 4528 1892 366 41 481 46 970
46 489 0 604 -5 970 -46 645 -71 1247 -206 1882 -423 704 -240 1456 -617 2072
-1040 130 -89 151 -94 151 -40 0 20 -34 46 -202 158 -685 452 -1333 769 -2093
1022 -738 245 -1474 386 -2270 434 -232 14 -801 14 -1025 0 -810 -51 -1533
-190 -2280 -440 -668 -223 -1285 -514 -1880 -888 l-145 -91 -3 1496 c-1 823
-1 1498 1 1500 2 1 1209 12 2682 23 1473 11 2680 22 2682 23 1 2 5 143 9 314
l7 311 44 17 c24 9 58 29 75 43 41 35 78 116 78 172 0 49 -29 122 -63 159 -33
36 -115 71 -167 71 -52 0 -134 -35 -167 -71 -34 -37 -63 -110 -63 -159 0 -89
64 -182 146 -212 l35 -12 -7 -276 c-4 -151 -7 -276 -8 -276 0 -1 -1063 -9
-2361 -18 -1298 -8 -2487 -18 -2642 -21 l-283 -5 0 820 0 820 -27 0 c-109 0
-3103 -40 -3354 -45 l-316 -6 -17 46 c-25 64 -62 104 -121 131 -65 31 -126 31
-190 0z"/>
<path d="M24654 29868 c17 -108 126 -315 205 -393 34 -32 41 -46 41 -78 0 -53
52 -107 103 -107 39 0 91 36 102 70 4 12 15 20 29 20 71 0 250 85 350 167 71
58 96 96 80 121 -13 19 -19 19 -162 4 -238 -27 -451 33 -650 183 -91 69 -107
71 -98 13z"/>
<path d="M13735 29740 c-37 -86 -139 -266 -220 -390 -103 -157 -187 -266 -388
-500 -88 -102 -176 -206 -196 -232 -20 -26 -39 -47 -43 -48 -3 0 -21 23 -38
52 -18 29 -81 118 -140 198 -132 179 -185 261 -238 367 -33 64 -39 83 -28 92
23 19 130 41 268 53 l137 13 -192 74 c-106 41 -264 103 -352 137 -88 34 -232
89 -319 123 -87 34 -160 60 -162 59 -3 -4 314 -909 321 -916 2 -3 9 6 14 19
34 90 94 236 103 252 9 17 20 1 82 -119 40 -76 108 -200 151 -274 141 -242
164 -283 237 -427 l71 -142 150 142 c494 470 909 821 1149 970 37 23 67 44 68
48 0 3 -40 -3 -89 -13 -144 -29 -401 -66 -401 -57 0 4 6 38 14 76 21 100 68
439 64 465 -2 19 -7 14 -23 -22z"/>
<path d="M36485 27366 c-60 -28 -87 -56 -114 -116 -36 -79 -19 -183 42 -249
24 -26 112 -71 140 -71 16 0 17 -109 17 -2145 l0 -2145 1465 0 1465 0 0 -1780
0 -1780 -3610 0 -3610 0 -5 23 c-2 12 -19 92 -36 177 -241 1199 -795 2373
-1582 3355 -242 302 -689 769 -965 1009 -1106 961 -2411 1590 -3827 1845 -796
143 -1666 163 -2475 55 -1552 -206 -2990 -861 -4190 -1908 -131 -114 -482
-458 -602 -589 l-81 -88 23 -24 23 -24 226 231 c124 127 298 296 386 376 1187
1072 2694 1764 4270 1961 384 49 509 55 1005 55 496 0 621 -6 1005 -55 1576
-197 3087 -891 4270 -1962 188 -169 506 -492 655 -662 1034 -1183 1697 -2652
1889 -4190 49 -384 55 -509 55 -1005 0 -496 -6 -621 -55 -1005 -179 -1431
-766 -2808 -1683 -3944 -323 -401 -771 -851 -1166 -1171 -368 -298 -672 -503
-1155 -781 -47 -27 -61 -41 -63 -62 -6 -47 22 -43 130 19 373 209 767 475
1093 737 291 234 675 596 922 869 1144 1265 1848 2847 2017 4533 28 272 37
476 37 805 0 435 -20 726 -76 1130 -14 96 -25 183 -25 192 0 17 72 18 1415 18
l1415 0 0 -5839 c0 -5836 0 -5840 -20 -5846 -65 -20 -130 -124 -130 -205 0
-49 29 -122 63 -159 33 -36 115 -71 167 -71 52 0 134 35 167 71 34 37 63 110
63 159 0 52 -35 134 -71 167 -30 27 -106 62 -136 63 l-23 0 0 5830 0 5830
2143 -2 2142 -3 3 -865 2 -865 -49 -18 c-67 -24 -109 -61 -137 -122 -31 -65
-31 -126 0 -190 28 -60 56 -87 116 -114 79 -36 183 -19 249 42 36 33 71 115
71 167 0 86 -60 177 -139 209 l-31 13 2 2692 3 2691 1302 3 1303 2 24 -37 c31
-49 52 -68 106 -92 79 -36 183 -19 249 42 36 33 71 115 71 167 0 52 -35 134
-71 167 -37 34 -110 63 -159 63 -49 0 -122 -29 -159 -63 -28 -26 -71 -113 -71
-145 l0 -22 -2762 2 -2763 3 -3 2107 -2 2108 37 19 c49 25 77 55 102 111 27
60 26 123 -3 185 -28 60 -56 87 -116 114 -60 27 -123 26 -185 -3z"/>
<path d="M44289 26358 c-56 -77 -80 -140 -91 -249 -9 -85 -8 -110 5 -153 12
-42 14 -108 12 -376 -1 -179 -5 -360 -10 -403 -8 -78 -1 -145 30 -283 14 -64
11 -104 -9 -104 -8 0 -11 -35 -11 -117 0 -133 -12 -176 -53 -191 -42 -15 -205
-31 -223 -22 -8 5 -30 38 -49 74 -24 49 -31 73 -27 95 5 22 2 33 -10 40 -14 7
-15 13 -6 33 6 14 9 52 6 89 -5 54 0 80 27 164 29 92 32 107 26 187 -6 73 -3
96 15 150 27 81 22 187 -16 307 -26 80 -26 89 -15 159 13 83 8 129 -19 163
-10 14 -20 48 -23 78 -7 74 -22 84 -119 78 -145 -9 -189 -60 -219 -253 -9 -62
-9 -95 -1 -133 6 -29 11 -72 11 -96 0 -66 73 -341 110 -414 17 -35 37 -83 44
-105 7 -23 34 -72 59 -109 54 -78 63 -105 49 -145 -12 -34 -5 -77 14 -93 29
-24 10 -79 -27 -79 -10 0 -32 -12 -49 -26 l-31 -27 3 -136 c3 -126 1 -139 -19
-172 -19 -30 -82 -84 -184 -158 -26 -19 -45 -9 -123 68 -46 43 -66 71 -66 87
0 14 -7 27 -15 30 -10 4 -13 14 -9 29 5 22 4 23 -38 18 l-43 -6 22 24 c27 29
43 71 43 109 0 16 5 32 10 35 20 12 9 80 -31 204 -38 118 -40 130 -34 203 8
84 8 83 -58 193 -79 132 -152 204 -230 227 -35 11 -44 10 -76 -9 -55 -31 -71
-72 -71 -178 0 -49 7 -118 15 -152 8 -34 12 -68 10 -76 -9 -21 82 -246 133
-330 72 -120 131 -189 177 -207 69 -26 68 -25 62 -108 -5 -62 -2 -81 14 -111
10 -19 19 -47 19 -61 0 -14 11 -47 25 -74 34 -67 33 -118 -1 -145 -15 -12 -39
-21 -55 -21 -17 0 -32 -7 -37 -17 -27 -52 -53 -218 -67 -423 -9 -121 -20 -231
-25 -246 -16 -40 -12 -67 20 -166 17 -51 42 -158 56 -238 42 -244 113 -383
268 -526 107 -99 168 -129 242 -120 63 7 206 60 303 111 99 53 131 46 131 -26
0 -38 39 -76 89 -86 20 -5 95 -8 166 -7 103 1 153 7 242 28 127 30 207 33 261
10 86 -36 250 18 384 126 176 143 288 280 327 403 12 35 14 36 34 22 12 -8 27
-15 34 -15 18 0 260 244 268 271 14 44 -58 63 -148 38 -89 -25 -228 -125 -224
-162 2 -20 -3 -22 -43 -22 -81 1 -138 24 -197 79 l-55 51 0 130 c0 129 -1 131
-38 215 -98 217 -120 274 -129 331 -13 79 -5 117 31 155 29 31 29 33 13 58
-17 25 -16 29 18 113 19 49 42 111 50 138 8 28 40 86 71 129 31 43 56 83 56
89 0 6 20 54 45 107 35 75 46 110 48 157 2 50 8 68 33 97 61 77 73 99 124 238
69 188 110 273 217 448 83 137 88 148 86 197 -4 121 -95 207 -190 181 -51 -13
-125 -91 -148 -154 -10 -27 -40 -88 -68 -136 -41 -73 -48 -92 -42 -119 9 -38
-4 -49 -56 -49 -35 0 -40 -4 -103 -98 -36 -54 -73 -119 -83 -144 l-17 -47 27
-38 c51 -73 26 -121 -79 -152 -56 -16 -59 -19 -66 -57 -4 -21 -10 -93 -14
-159 l-6 -120 35 -46 c43 -56 112 -178 104 -185 -11 -11 -68 8 -90 30 -14 15
-57 33 -119 49 -91 25 -99 26 -139 12 -23 -9 -47 -19 -53 -24 -25 -21 -130
-23 -191 -4 -59 18 -60 19 -63 58 -4 50 -28 78 -60 72 -33 -6 -39 19 -12 48
20 21 24 43 35 162 13 136 23 176 89 358 14 39 37 124 52 190 70 318 86 463
82 742 -3 202 -5 221 -25 258 -30 55 -129 177 -156 192 -12 7 -50 12 -84 13
-62 0 -63 0 -94 -42z m66 -2721 c24 -45 44 -53 83 -33 51 26 120 40 136 27 28
-23 28 -75 1 -147 -14 -37 -39 -120 -55 -183 -16 -64 -36 -134 -45 -156 -45
-108 -77 -167 -108 -202 -45 -50 -53 -68 -62 -131 -6 -44 -14 -59 -48 -93 -23
-22 -60 -49 -82 -61 -22 -11 -47 -26 -55 -33 -22 -19 -123 24 -181 78 -54 49
-79 108 -109 256 -23 115 -24 144 -8 223 11 52 10 62 -6 88 -23 40 -13 68 32
87 74 30 132 104 132 167 0 47 63 124 102 125 15 1 30 -3 33 -9 10 -15 77 -12
110 6 78 42 104 41 130 -9z"/>
<path d="M5690 25574 c-14 -2 -68 -12 -120 -20 -52 -9 -147 -33 -210 -54 -400
-130 -682 -380 -766 -677 l-19 -65 -75 6 c-101 8 -324 -9 -436 -34 -268 -58
-498 -175 -681 -345 -326 -303 -429 -701 -297 -1145 97 -325 358 -600 669
-704 95 -32 172 -45 161 -28 -4 7 -13 12 -19 12 -25 0 -154 96 -237 176 -236
227 -371 529 -397 884 -14 201 63 387 232 556 245 247 636 384 1101 384 l141
0 7 68 c23 229 244 479 550 623 194 91 367 129 583 129 202 1 350 -33 516
-116 358 -179 591 -547 661 -1044 l6 -45 193 0 c221 0 286 -14 393 -83 81 -53
130 -111 174 -206 59 -127 75 -207 74 -376 0 -291 -87 -515 -271 -697 -40 -40
-68 -73 -62 -73 21 0 145 71 201 115 302 237 406 741 234 1128 -126 284 -383
446 -706 447 l-75 0 -22 114 c-59 302 -175 529 -367 722 -173 172 -337 260
-602 325 -74 18 -123 22 -299 25 -115 1 -221 0 -235 -2z"/>
<path d="M4704 24133 c-5 -170 -8 -423 -9 -563 l0 -255 505 -12 c278 -6 703
-16 945 -22 242 -6 492 -11 556 -11 l116 0 6 263 c4 144 10 395 13 558 l7 297
-89 6 c-49 3 -330 10 -624 16 -294 6 -680 15 -858 20 -177 6 -376 10 -441 10
l-119 0 -8 -307z m791 147 c736 -14 1185 -26 1192 -33 3 -3 2 -191 -2 -417
l-8 -412 -386 7 c-723 13 -1438 32 -1447 37 -5 4 -6 96 -3 230 4 122 7 307 8
410 1 186 4 202 36 192 6 -1 280 -8 610 -14z"/>
<path d="M24175 24250 c-927 -52 -1789 -282 -2617 -696 -146 -73 -416 -225
-537 -301 l-63 -41 53 -7 c104 -13 198 -71 244 -149 27 -46 75 -204 75 -246 0
-37 35 -79 84 -101 57 -26 217 -25 362 1 293 53 754 210 1070 366 97 48 118
64 173 125 152 169 407 281 882 385 l161 35 92 -44 c205 -100 266 -109 711
-111 384 -2 447 -9 548 -56 95 -45 120 -115 73 -207 -33 -67 -135 -167 -241
-237 -169 -113 -389 -314 -495 -454 -110 -145 -165 -302 -140 -400 46 -184
233 -287 545 -299 169 -7 287 7 408 48 111 37 167 69 231 134 163 163 190 434
85 849 -22 87 -27 122 -19 130 6 6 48 11 98 11 80 0 93 -3 164 -38 42 -20 110
-63 150 -95 100 -80 230 -223 269 -295 116 -218 297 -426 424 -488 64 -31 78
-34 160 -34 l91 0 35 -60 c47 -82 217 -251 434 -432 194 -162 255 -222 255
-253 0 -32 -40 -34 -202 -6 -324 55 -472 23 -543 -118 -41 -83 -46 -194 -15
-366 13 -69 25 -161 27 -206 5 -79 4 -81 -24 -104 -35 -27 -81 -24 -249 20
-355 92 -633 87 -849 -15 -184 -87 -274 -208 -430 -575 -96 -225 -171 -364
-260 -480 -177 -230 -264 -427 -251 -563 4 -34 9 -130 12 -214 9 -233 -18
-392 -69 -401 -47 -9 -120 115 -187 322 -23 70 -56 148 -74 173 -98 145 -331
155 -679 29 -191 -69 -256 -116 -307 -219 -75 -154 -65 -352 35 -685 69 -232
115 -306 220 -358 97 -47 256 -31 340 36 48 38 78 39 237 0 149 -36 240 -50
335 -50 81 0 103 -6 103 -27 0 -30 -46 -77 -169 -175 -69 -56 -147 -119 -172
-142 -25 -22 -60 -49 -78 -58 -43 -23 -64 -73 -50 -121 29 -107 302 -282 619
-400 108 -40 250 -73 274 -64 14 6 14 11 -5 47 -16 30 -20 52 -16 81 16 121
172 301 292 339 22 7 119 54 215 105 534 283 754 372 857 343 39 -11 49 -36
39 -103 -9 -56 18 -122 62 -154 95 -67 263 -88 580 -71 255 14 324 10 432 -26
178 -60 316 -178 433 -372 65 -108 147 -311 147 -366 0 -96 58 -219 130 -276
53 -42 154 -88 236 -106 44 -10 142 -17 274 -20 113 -3 224 -10 247 -16 86
-22 113 -80 74 -163 -52 -111 -246 -299 -516 -500 -114 -85 -342 -315 -400
-404 -82 -125 -97 -174 -106 -346 -8 -156 -25 -255 -61 -365 -31 -96 -84 -196
-120 -228 -573 -496 -1418 -1295 -1915 -1809 -255 -264 -338 -353 -392 -420
-46 -57 -135 -97 -219 -98 -60 0 -65 2 -97 36 -45 49 -59 122 -52 259 12 220
85 476 173 610 247 374 348 858 278 1335 -29 200 -100 405 -147 425 -12 5 -65
26 -117 46 -152 58 -347 156 -462 233 -427 285 -579 657 -452 1099 46 159 185
417 297 550 21 24 37 47 37 52 0 10 -834 591 -1142 795 l-117 78 -128 1 c-120
2 -135 5 -243 41 -291 98 -705 351 -1159 709 -266 209 -291 234 -349 332 -76
129 -144 218 -242 315 -102 101 -204 167 -315 205 -73 25 -91 28 -215 26 -154
-2 -210 10 -305 63 -272 153 -641 616 -876 1100 -102 209 -101 203 -46 365 70
206 90 318 91 490 1 169 -12 230 -75 359 -58 117 -152 211 -269 268 -47 23
-102 45 -122 48 -33 6 -43 2 -95 -38 -88 -67 -239 -165 -318 -204 -105 -54
-170 -73 -243 -73 -62 0 -67 2 -101 38 l-37 38 -28 -45 c-153 -243 -378 -681
-490 -953 -544 -1319 -651 -2758 -306 -4138 114 -458 257 -848 470 -1285 822
-1688 2332 -2950 4141 -3459 1151 -324 2417 -324 3568 0 1158 326 2219 973
3034 1849 684 735 1188 1602 1482 2550 389 1256 389 2646 0 3900 -102 330
-216 614 -375 940 -516 1061 -1298 1952 -2290 2610 -919 610 -1964 973 -3080
1070 -213 19 -700 27 -905 15z"/>
<path d="M3976 23848 c-3 -24 -10 -288 -16 -588 -5 -300 -15 -744 -21 -988 -7
-243 -10 -444 -8 -446 2 -2 139 -7 305 -11 l301 -7 6 189 c4 103 7 247 7 320
0 72 4 134 9 137 8 6 647 -6 1361 -24 217 -5 530 -12 694 -16 l299 -7 -7 -323
-8 -323 24 -5 c13 -3 150 -7 304 -10 l282 -5 6 182 c3 100 8 295 11 432 3 138
8 363 11 500 3 138 9 408 13 600 5 216 4 352 -1 356 -11 7 -589 19 -600 12 -5
-2 -8 -73 -8 -157 0 -84 -3 -228 -7 -321 l-6 -168 -306 6 c-168 4 -625 13
-1016 21 -390 9 -783 18 -872 22 l-162 6 6 323 6 322 -189 6 c-104 4 -239 7
-301 7 l-112 0 -5 -42z"/>
<path d="M46320 23467 c-80 -27 -208 -99 -264 -148 -22 -20 -69 -84 -104 -141
-63 -105 -63 -105 -48 -139 8 -19 17 -42 20 -51 9 -30 163 -61 230 -46 43 9
146 71 146 88 0 5 39 35 88 66 171 110 282 220 282 279 0 9 -19 38 -42 66
l-43 49 -100 0 c-77 0 -115 -6 -165 -23z"/>
<path d="M4667 22364 c-4 -4 -7 -86 -7 -183 0 -97 -5 -318 -10 -491 -5 -173
-12 -493 -16 -711 l-7 -396 219 -7 c120 -3 433 -11 694 -16 261 -5 641 -15
843 -21 202 -6 369 -10 371 -8 2 2 9 243 15 534 7 292 16 692 20 890 5 198 7
362 5 364 -2 2 -172 8 -376 12 -484 10 -1255 27 -1528 34 -119 4 -219 3 -223
-1z m828 -165 c813 -15 1123 -24 1131 -32 6 -6 -6 -673 -23 -1266 l-6 -224
-306 7 c-168 3 -385 8 -481 11 -96 3 -303 7 -460 10 -157 3 -354 8 -438 12
l-152 6 5 131 c3 72 10 385 15 696 6 311 13 589 16 618 l6 53 56 -5 c31 -3
318 -11 637 -17z"/>
<path d="M4927 21920 c-3 -40 -4 -76 -2 -80 3 -4 150 -10 327 -14 178 -4 489
-11 691 -17 203 -6 371 -9 373 -6 2 2 7 38 10 79 l7 76 -74 6 c-72 5 -235 9
-970 23 l-356 6 -6 -73z"/>
<path d="M4927 21723 c-4 -3 -7 -39 -7 -79 l0 -72 123 -6 c67 -4 315 -11 552
-16 329 -7 431 -6 437 3 5 7 7 44 6 82 l-3 70 -325 6 c-179 4 -427 10 -551 13
-124 3 -229 3 -232 -1z"/>
<path d="M4915 21408 c-14 -108 -21 -102 145 -109 80 -4 262 -8 405 -9 l260
-3 3 73 c2 40 -1 76 -5 81 -4 4 -186 10 -405 14 l-396 8 -7 -55z"/>
<path d="M4912 21119 l3 -84 125 -2 c69 -2 312 -7 540 -13 228 -5 485 -10 570
-11 l155 -1 3 76 c2 56 -1 77 -10 81 -7 2 -256 9 -553 14 -297 6 -607 14 -688
18 l-148 6 3 -84z"/>
<path d="M16505 17909 c-11 -17 -7 -551 5 -737 91 -1430 534 -2742 1325 -3927
316 -474 616 -835 1043 -1257 115 -115 204 -208 196 -208 -12 0 -14 -193 -14
-1280 l0 -1280 -2395 0 -2395 0 0 2805 0 2805 -749 0 -748 0 -18 45 c-24 64
-61 104 -120 131 -65 31 -126 31 -190 0 -60 -28 -87 -56 -114 -116 -27 -60
-26 -123 3 -185 28 -60 56 -87 116 -114 79 -36 183 -18 248 42 13 12 35 43 48
70 l24 47 708 -2 707 -3 3 -2762 2 -2763 -1435 0 -1435 0 -2 -1117 -3 -1118
-952 -3 -952 -2 -21 47 c-12 26 -31 59 -43 72 -33 36 -115 71 -167 71 -52 0
-134 -35 -167 -71 -34 -37 -63 -110 -63 -159 0 -52 35 -134 71 -167 37 -34
110 -63 159 -63 52 0 134 35 167 71 12 13 31 46 43 72 l21 47 994 0 995 0 0
1120 0 1120 3830 0 3830 0 0 -1193 0 -1192 -50 -18 c-66 -24 -108 -61 -136
-122 -31 -65 -31 -126 0 -190 28 -60 56 -87 116 -114 79 -36 183 -19 249 42
36 33 71 115 71 167 0 86 -60 177 -139 209 l-31 13 0 2495 0 2496 29 -24 c16
-13 103 -86 193 -162 547 -458 1185 -857 1846 -1154 345 -154 784 -311 1146
-409 174 -47 179 -47 193 -29 22 32 11 48 -42 63 -929 250 -1655 573 -2405
1067 -659 435 -1289 1009 -1788 1628 -844 1046 -1402 2280 -1631 3607 -71 410
-101 743 -108 1200 -3 224 -9 360 -16 368 -18 22 -45 33 -52 21z"/>
<path d="M9266 17041 c-27 -61 -42 -116 -126 -466 -74 -305 -81 -345 -87 -506
-5 -138 -4 -150 17 -193 12 -26 19 -53 16 -61 -7 -21 -62 -19 -166 5 -47 11
-88 20 -92 20 -16 0 -7 -43 16 -83 35 -60 46 -145 46 -369 0 -109 5 -242 11
-297 13 -124 7 -141 -54 -141 -23 0 -74 9 -112 20 -105 30 -290 58 -433 66
-231 12 -488 -30 -646 -104 l-80 -38 85 -64 c99 -77 136 -128 314 -440 65
-113 154 -266 199 -340 109 -183 109 -191 2 -299 -45 -45 -74 -81 -68 -85 6
-4 77 -29 157 -56 229 -78 272 -106 282 -178 4 -29 -2 -56 -25 -108 -16 -38
-33 -79 -37 -91 l-6 -23 216 0 c225 0 291 -8 321 -41 24 -27 30 -106 10 -153
-9 -22 -15 -41 -13 -42 6 -6 233 84 314 125 45 22 119 66 165 97 45 32 128 78
183 104 167 77 462 193 477 187 8 -3 25 -34 38 -69 13 -34 65 -169 116 -298
102 -261 134 -359 139 -422 1 -24 3 -44 4 -46 0 -1 14 4 30 13 85 43 76 86
-83 423 -99 210 -136 308 -139 371 l-2 46 38 3 c21 2 92 -4 158 -12 242 -32
561 -18 824 35 106 21 392 112 421 134 16 11 13 15 -33 38 -93 47 -143 104
-143 162 0 38 42 114 88 158 21 21 87 77 147 125 100 81 176 164 163 178 -3 3
-37 12 -74 20 -104 21 -157 51 -168 94 -9 38 26 155 113 382 42 109 51 158 29
158 -7 0 -35 -7 -62 -15 -61 -18 -77 -19 -101 -1 -17 12 -17 16 13 87 41 99
48 147 67 421 9 128 25 310 35 403 11 94 20 193 20 220 0 51 -16 125 -27 125
-3 0 -22 -15 -42 -33 -50 -45 -206 -154 -381 -267 -231 -148 -284 -191 -482
-392 -124 -125 -193 -188 -202 -185 -22 9 -41 50 -86 188 -22 67 -62 161 -88
207 -52 94 -167 247 -282 375 -69 78 -78 93 -118 203 -45 123 -66 164 -82 164
-5 0 -24 -13 -42 -28 -49 -42 -61 -44 -110 -13 -92 60 -302 269 -405 402 -24
31 -62 100 -85 154 -24 54 -48 100 -54 102 -6 2 -23 -23 -38 -56z"/>
<path d="M39730 16529 c-472 -83 -868 -480 -1053 -1054 -44 -136 -84 -331 -93
-448 -5 -57 -12 -91 -20 -94 -18 -7 -285 32 -463 68 -142 28 -174 37 -271 74
-42 17 -104 19 -130 5 -10 -5 -23 -25 -29 -42 -27 -86 -50 -1061 -32 -1388 23
-412 76 -797 152 -1105 44 -176 112 -425 140 -511 47 -143 95 -174 273 -174
55 0 200 -5 321 -10 627 -29 943 -58 1780 -165 149 -19 333 -42 410 -50 77 -9
159 -23 183 -31 65 -21 139 -18 199 10 170 79 282 328 378 841 122 648 122
650 195 830 97 242 202 595 249 835 43 223 50 358 26 495 -22 125 -49 139
-330 176 -75 10 -504 7 -558 -4 -7 -1 -17 56 -28 163 -22 218 -35 300 -69 450
-141 605 -448 998 -865 1110 -92 25 -279 34 -365 19z m195 -180 c382 -46 694
-324 834 -744 54 -161 71 -268 78 -470 4 -144 -6 -339 -18 -349 -2 -2 -46 1
-98 5 -86 7 -372 22 -986 49 -245 12 -778 45 -884 56 l-64 7 6 146 c24 629
314 1113 753 1260 139 47 238 57 379 40z"/>
<path d="M32991 15928 c-5 -13 -26 -96 -46 -185 -114 -512 -310 -1103 -525
-1588 -365 -822 -822 -1539 -1426 -2233 -265 -304 -738 -760 -1071 -1029
-1297 -1052 -2869 -1709 -4528 -1892 -366 -41 -481 -46 -970 -46 -489 0 -604
5 -970 46 -981 108 -1902 373 -2820 808 -71 34 -132 58 -137 53 -4 -4 0 -23
10 -42 19 -38 67 -66 312 -176 840 -381 1818 -639 2760 -728 400 -39 975 -50
1355 -26 1991 121 3808 868 5315 2185 266 233 698 678 951 980 510 608 980
1370 1299 2100 228 524 441 1185 539 1676 18 90 18 90 -3 105 -28 19 -35 18
-45 -8z"/>
<path d="M7479 9487 c-55 -29 -101 -101 -119 -187 -15 -73 -9 -208 16 -300 38
-149 141 -317 239 -391 148 -112 282 -83 350 76 29 66 32 233 7 332 -57 227
-172 396 -315 464 -75 35 -119 37 -178 6z"/>
<path d="M6916 9065 c-42 -42 -59 -96 -59 -191 1 -203 128 -394 262 -394 106
0 164 146 126 316 -40 180 -140 304 -246 304 -42 0 -53 -5 -83 -35z"/>
<path d="M6499 8722 c-70 -45 -94 -102 -94 -222 0 -84 3 -102 28 -152 54 -109
158 -172 247 -148 89 24 141 101 148 220 5 89 -6 136 -50 210 -45 75 -102 113
-175 118 -51 3 -64 0 -104 -26z"/>
<path d="M7465 8390 c-388 -41 -848 -448 -957 -846 -31 -115 -31 -299 0 -409
44 -152 144 -327 286 -495 112 -134 299 -315 611 -591 299 -264 478 -439 557
-544 25 -33 112 -161 195 -285 224 -336 322 -448 464 -533 147 -87 323 -112
442 -63 192 79 347 289 347 470 0 102 -56 233 -150 351 -68 85 -227 237 -425
407 -327 280 -446 420 -504 593 -61 184 -60 367 5 693 67 334 77 454 49 584
-30 142 -90 250 -210 377 -204 216 -454 318 -710 291z"/>
<path d="M6180 8247 c-54 -35 -73 -79 -78 -172 -4 -69 -1 -90 20 -142 42 -104
104 -162 182 -170 57 -7 102 20 136 79 22 37 25 55 25 133 -1 70 -6 101 -22
136 -24 54 -85 124 -124 145 -42 21 -101 18 -139 -9z"/>
<path d="M6040 7733 c-44 -22 -80 -90 -80 -150 0 -23 9 -66 20 -96 54 -143
192 -171 250 -51 70 144 -67 359 -190 297z"/>
<path d="M36758 6315 c-2 -3 -79 -12 -169 -20 -90 -8 -238 -22 -329 -30 -292
-28 -353 -33 -485 -45 -71 -6 -150 -16 -175 -22 -128 -31 -181 -149 -120 -267
22 -44 81 -99 113 -105 12 -3 101 -19 197 -36 257 -47 312 -58 321 -67 4 -4 1
-26 -6 -48 -7 -22 -19 -59 -25 -83 -14 -53 -24 -57 -160 -66 -58 -4 -148 -11
-200 -16 -52 -5 -180 -16 -285 -25 -104 -9 -239 -20 -300 -25 -145 -13 -415
-36 -650 -55 -104 -9 -231 -20 -282 -25 -50 -6 -106 -10 -124 -10 l-32 0 6 48
c4 26 13 92 22 146 20 130 19 177 -5 271 -11 43 -20 86 -20 96 0 21 16 25 170
39 69 7 128 15 131 18 4 4 3 36 -2 72 -5 36 -12 99 -16 140 l-8 75 -80 0 c-44
0 -183 -3 -310 -7 l-230 -6 -26 -32 c-81 -97 -53 -287 49 -329 23 -10 39 -32
72 -99 41 -85 42 -89 37 -164 -4 -42 -11 -96 -16 -120 -6 -23 -36 -173 -66
-333 -31 -159 -67 -344 -80 -410 -12 -66 -31 -164 -41 -217 -20 -104 -24 -109
-72 -84 -94 48 -321 96 -454 96 -126 0 -298 -36 -430 -91 -282 -116 -526 -377
-625 -668 -68 -201 -78 -434 -28 -634 101 -399 420 -717 815 -815 159 -39 264
-47 397 -28 269 38 480 138 653 308 225 222 340 493 340 805 0 302 -111 573
-321 787 -43 44 -79 87 -79 95 0 37 35 191 43 191 8 0 355 -189 527 -287 48
-27 686 -381 733 -407 33 -17 37 -24 32 -46 -45 -178 -3 -349 117 -468 102
-102 217 -147 360 -140 45 3 90 8 98 12 21 9 66 -50 52 -67 -6 -7 -7 -44 -2
-97 5 -47 9 -100 9 -118 l1 -34 69 3 c60 3 73 1 93 -18 43 -40 115 -35 167 12
30 27 47 35 77 35 67 0 67 2 53 134 l-12 116 -93 -6 -92 -7 -41 84 c-23 45
-41 89 -41 97 0 7 11 28 25 46 32 43 73 136 81 187 8 46 6 45 96 53 l67 6 11
-42 c56 -219 202 -447 375 -587 183 -147 368 -222 615 -252 184 -21 415 23
600 116 259 130 468 370 560 645 95 281 73 583 -60 853 -209 422 -674 673
-1136 613 -124 -16 -239 -48 -328 -92 l-51 -24 -19 22 c-18 23 -82 120 -241
368 -153 239 -179 275 -213 292 -19 9 -36 19 -39 22 -3 3 7 39 22 81 23 63 32
76 54 81 49 11 182 54 225 74 80 36 142 94 177 166 32 65 33 71 37 220 l4 154
-39 0 c-22 0 -42 -2 -45 -5z m-778 -1041 c0 -3 -17 -65 -39 -137 -21 -73 -41
-141 -44 -152 -3 -11 -49 -171 -102 -355 -53 -184 -100 -348 -105 -365 -4 -16
-15 -55 -24 -86 l-17 -56 -57 -6 c-31 -4 -66 -8 -77 -9 -15 -2 -27 11 -52 57
-39 74 -39 75 -7 75 l27 0 -7 103 c-10 150 -3 140 -103 132 -76 -6 -89 -5
-127 16 -55 29 -107 21 -138 -21 -19 -26 -28 -30 -71 -30 l-49 0 6 -87 c4 -49
9 -103 12 -120 l5 -33 74 0 74 0 35 -67 c20 -37 35 -71 34 -74 -2 -4 -104 49
-228 118 -539 300 -853 474 -958 533 -63 35 -116 69 -119 76 -3 7 7 62 21 121
41 170 48 195 60 199 6 2 92 10 191 18 99 9 261 23 360 31 99 9 230 20 290 25
118 10 370 32 635 55 91 8 226 19 300 25 74 6 140 13 145 15 16 6 55 5 55 -1z
m321 -62 c20 -31 90 -140 156 -242 66 -102 130 -204 144 -227 l24 -42 -41 -35
c-22 -19 -66 -65 -96 -103 -150 -183 -237 -393 -256 -618 -8 -100 -3 -96 -119
-108 l-52 -6 -46 69 c-37 55 -98 118 -144 147 -2 1 10 44 27 95 17 51 49 154
72 228 64 206 110 351 125 395 7 22 28 87 45 145 18 58 47 152 65 210 19 58
36 115 40 128 3 12 9 22 13 22 4 0 23 -26 43 -58z m1201 -577 c195 -41 353
-138 474 -289 115 -144 174 -313 174 -501 0 -566 -560 -952 -1091 -752 -192
73 -353 220 -438 402 -34 71 -55 134 -48 141 3 3 47 9 98 14 52 5 141 14 199
20 58 6 196 19 307 30 114 11 211 25 222 32 37 22 54 74 47 137 -6 52 -21 77
-221 377 -118 177 -215 324 -215 327 0 9 108 47 175 62 83 18 229 18 317 0z
m-539 -451 c88 -135 157 -247 155 -248 -1 -2 -55 -8 -118 -14 -63 -6 -191 -19
-283 -28 -92 -9 -171 -14 -174 -10 -11 11 25 182 53 253 15 37 46 98 70 136
42 65 120 157 133 157 3 0 77 -111 164 -246z m-3658 46 c93 -24 223 -82 231
-105 8 -21 -52 -230 -81 -280 -81 -142 -220 -224 -309 -183 -21 9 -33 8 -67
-7 -106 -48 -119 -152 -29 -229 49 -41 94 -50 181 -37 110 18 169 52 281 163
110 109 164 186 204 291 15 40 31 76 35 81 9 10 66 -76 97 -144 51 -113 66
-189 66 -330 0 -162 -14 -222 -84 -365 -160 -326 -528 -504 -882 -425 -243 53
-431 194 -546 410 -193 360 -77 822 261 1043 150 98 270 135 447 136 84 1 137
-5 195 -19z"/>
<path d="M19722 5955 c-3 -5 -8 -138 -10 -295 -2 -157 -5 -286 -7 -288 -2 -2
-147 91 -324 207 -305 199 -321 208 -322 183 0 -15 -1 -90 -2 -166 l-2 -140
440 -285 c243 -157 492 -319 555 -360 166 -107 492 -318 815 -528 299 -195
305 -198 384 -170 59 21 75 59 72 165 -1 37 73 -14 -1076 736 l-329 215 3 365
3 366 -59 1 c-32 0 -75 1 -96 2 -22 1 -42 -2 -45 -8z"/>
<path d="M18775 5661 c-115 -70 -316 -192 -445 -271 -129 -78 -347 -211 -485
-295 -137 -83 -367 -223 -510 -310 -516 -314 -700 -427 -714 -441 -23 -21 -27
-126 -7 -157 19 -28 81 -57 123 -57 23 0 159 77 513 290 52 31 230 137 395
235 165 98 354 211 421 251 66 41 132 79 145 86 13 8 191 113 396 236 l372
222 6 53 c3 28 5 105 3 170 l-3 117 -210 -129z"/>
<path d="M19690 4534 c0 -160 -125 -404 -305 -596 -274 -293 -518 -677 -579
-911 -45 -173 -14 -326 84 -410 38 -32 40 -36 30 -63 -22 -57 -37 -155 -39
-246 -1 -51 -4 -94 -6 -97 -3 -2 -9 8 -15 23 -18 47 -71 119 -129 173 l-55 51
12 49 c47 192 9 333 -128 469 -65 64 -268 215 -380 283 -136 83 -220 183 -261
311 l-17 55 -1 -141 c-2 -330 58 -659 156 -859 64 -130 150 -223 246 -265 73
-32 407 -87 407 -66 0 3 -13 25 -30 48 -62 85 -24 94 45 11 61 -75 122 -179
150 -256 13 -34 26 -61 29 -59 3 1 13 2 21 2 13 0 14 16 9 102 -4 71 -1 142
10 228 24 182 16 167 99 172 171 11 438 196 574 398 78 116 147 299 180 476
14 80 18 148 17 354 0 279 -12 384 -74 652 -33 141 -50 180 -50 112z"/>
<path d="M17319 4364 c-29 -20 -89 -61 -131 -91 -69 -48 -78 -58 -78 -86 0
-28 -50 -1135 -65 -1452 -3 -60 -10 -211 -15 -335 -15 -337 -21 -460 -25 -516
-3 -49 -2 -52 23 -57 15 -2 72 -4 127 -3 l100 1 2 35 c1 19 7 143 13 275 6
132 13 276 15 320 3 44 12 226 20 405 8 179 17 366 20 415 3 50 10 185 15 300
6 116 12 251 15 300 14 251 26 518 22 521 -2 2 -28 -13 -58 -32z"/>
<path d="M20550 4333 c-1 -26 -3 -77 -5 -113 -3 -36 -9 -182 -15 -325 -6 -143
-12 -303 -15 -355 -2 -52 -7 -158 -10 -235 -5 -131 -28 -688 -40 -945 -2 -63
-7 -182 -10 -265 -3 -82 -8 -183 -11 -223 l-6 -72 125 0 126 0 5 53 c3 28 15
270 26 537 11 267 22 519 25 560 2 41 7 143 10 225 3 83 8 179 10 215 2 36 7
130 10 210 3 80 8 177 10 215 2 39 7 140 10 225 l7 155 -113 85 c-150 114
-139 110 -139 53z"/>
<path d="M16836 1752 c-20 -40 -20 -55 2 -74 18 -17 211 -20 2047 -33 402 -3
1001 -8 1333 -11 565 -5 605 -5 623 12 22 20 25 62 7 87 -15 19 -213 23 -1603
32 -440 3 -1158 8 -1597 11 l-796 7 -16 -31z"/>
</g>
</svg>
